<?xml version="1.0" encoding="UTF-8" standalone="no"?>
<!-- Created with Inkscape (http://www.inkscape.org/) -->

<svg
   xmlns:dc="http://purl.org/dc/elements/1.1/"
   xmlns:cc="http://creativecommons.org/ns#"
   xmlns:rdf="http://www.w3.org/1999/02/22-rdf-syntax-ns#"
   xmlns:svg="http://www.w3.org/2000/svg"
   xmlns="http://www.w3.org/2000/svg"
   version="1.1"
   width="55"
   height="55"
   viewBox="0 0 55 55"
   id="svg2"
   xml:space="preserve"><metadata
     id="metadata25"><rdf:RDF><cc:Work
         rdf:about=""><dc:format>image/svg+xml</dc:format><dc:type
           rdf:resource="http://purl.org/dc/dcmitype/StillImage" /><dc:title></dc:title></cc:Work></rdf:RDF></metadata><defs
     id="defs33" /><g
     transform="matrix(0.65959435,0,0,0.65959435,2.2217886,-0.13950423)"
     id="clipping-image"
     style="display:block"><g
       id="g5"
       style="display:inline"><g
         id="g7"><polygon
           points="48.788,23.002 36.849,11.058 5.962,11.058 5.962,43.944 48.788,43.944 "
           id="polygon9"
           style="fill:#ffffff;stroke:#010101;stroke-width:3.5" /><polyline
           style="fill:none;stroke:#010101;stroke-width:3.5"
           points="36.849,11.058 36.849,23.002 48.788,23.002    "
           id="polyline11" /></g></g><path
       d="m 27.504,23.342 c -6.258,0 -11.471,6.241 -11.471,6.241 0,0 5.213,6.271 11.471,6.267 6.259,-0.005 11.475,-6.274 11.475,-6.274 0,0 -5.216,-6.238 -11.475,-6.234 z m 0,10.642 c -2.423,0 -4.387,-1.966 -4.387,-4.389 0,-2.419 1.964,-4.388 4.387,-4.388 2.42,0 4.386,1.969 4.386,4.388 0,2.424 -1.966,4.389 -4.386,4.389 z"
       id="path13"
       style="fill:#010101;display:inline" /><circle
       cx="27.504"
       cy="29.597"
       r="1.9910001"
       id="circle15"
       style="fill:#010101;display:inline" /></g><g
     transform="matrix(1.079797,0,0,1.079797,-5.2529966,-5.2292405)"
     id="g3013"
     style="stroke:#ffffff;stroke-opacity:1"><g
       transform="matrix(0.55205508,0,0,0.55205508,77.118464,18.235971)"
       id="g4382"
       style="stroke:#ffffff;stroke-opacity:1"><g
         transform="translate(-80.093659,12.220029)"
         id="g4308"
         style="fill:none;stroke:#ffffff;stroke-opacity:1"><g
           id="g4310"
           style="fill:none;stroke:#ffffff;stroke-opacity:1"><path
             d="m 6.736,49.002 h 24.52 c 2.225,0 3.439,-1.447 3.439,-3.441 v -27.28 c 0,-1.73 -1.732,-3.441 -3.439,-3.441 h -4.389"
             id="path4312"
             style="fill:none;stroke:#ffffff;stroke-width:3.5;stroke-linecap:round;stroke-linejoin:round;stroke-opacity:1" /></g></g><g
         transform="translate(-80.093659,12.220029)"
         id="g4314"
         style="fill:none;stroke:#ffffff;stroke-opacity:1"><g
           id="g4316"
           style="fill:none;stroke:#ffffff;stroke-opacity:1"><path
             d="m 26.867,38.592 c 0,1.836 -1.345,3.201 -3.441,4.047 L 6.736,49.002 V 14.84 l 16.69,-8.599 c 2.228,-0.394 3.441,0.84 3.441,2.834 v 29.517 z"
             id="path4318"
             style="fill:none;stroke:#ffffff;stroke-width:3.5;stroke-linecap:round;stroke-linejoin:round;stroke-opacity:1" /></g></g><path
         d="m -70.669659,54.827029 c 0,0 -1.351,-0.543 -2.702,-0.543 -1.351,0 -2.703,0.543 -2.703,0.543"
         id="path4320"
         style="fill:none;stroke:#ffffff;stroke-width:2.25;stroke-linecap:round;stroke-linejoin:round;stroke-opacity:1" /><path
         d="m -70.669659,44.226029 c 0,0 -1.239,-0.543 -2.815,-0.543 -1.577,0 -2.59,0.543 -2.59,0.543"
         id="path4322"
         style="fill:none;stroke:#ffffff;stroke-width:2.25;stroke-linecap:round;stroke-linejoin:round;stroke-opacity:1" /><path
         d="m -70.669659,33.898029 c 0,0 -1.125,-0.544 -2.927,-0.544 -1.802,0 -2.478,0.544 -2.478,0.544"
         id="path4324"
         style="fill:none;stroke:#ffffff;stroke-width:2.25;stroke-linecap:round;stroke-linejoin:round;stroke-opacity:1" /><line
         id="line4326"
         y2="23.725029"
         y1="58.753029"
         x2="-66.884659"
         x1="-66.884659"
         style="fill:none;stroke:#ffffff;stroke-width:2.25;stroke-linecap:round;stroke-linejoin:round;stroke-opacity:1" /></g></g></svg>