<?xml version="1.0" encoding="UTF-8" standalone="no"?>
 	<!-- Copyright (C) IBM Corporation 2008 -->
 	<!DOCTYPE svg PUBLIC "-//W3C//DTD SVG 1.1//EN" "http://www.w3.org/Graphics/SVG/1.1/DTD/svg11.dtd" [
 	<!ENTITY stroke_color "#010101">
 	<!ENTITY fill_color "#FFFFFF">
]>
<svg xmlns:svg="http://www.w3.org/2000/svg"
   width="0.833333in"
   height="0.833333in"
   viewBox="0 0 60 60">
  <g transform="translate(3,2)">
  <g transform="scale(0.92)">
  <path
     id="Left"
     fill="&fill_color;" stroke="&stroke_color;" stroke-width="3"
     d="M 12.99,13.58
        C  6.25,14.60  1.54, 5.10 11.04, 1.50 
        C 21.21, 1.49 20.24,12.49 12.99,13.58 Z 
        M 17.00,50.37 
        C 16.79,61.21  7.21,61.21  7.00,50.37 
        C  7.00,50.37  7.00,26.01  7.00,26.01 
        C  7.01,22.26  6.42,15.74 12.04,15.74 
        C 16.56,15.74 27.01,25.85 28.16,29.91 
        C 29.24,33.74 25.89,36.83 22.00,36.09 
        C 20.41,35.79 18.42,34.58 17.00,33.81 
        C 17.00,33.81 17.00,50.37 17.00,50.37 Z" />
  <path
     id="Right"
     fill="&stroke_color;" stroke="&fill_color;" stroke-width="3"
     d="M 47.98,13.80
        C 41.36,14.71 35.84, 4.88 46.01, 1.50
        C 56.42, 1.76 54.51,12.90 47.98,13.80 Z
        M 30.84,29.99
        C 31.98,25.93 42.45,15.81 46.96,15.81
        C 52.24,15.81 51.98,21.49 52.00,25.12 
        C 52.00,25.12 52.00,49.48 52.00,49.48
        C 51.92,60.38 45.67,59.79 42.85,56.07
        C 40.77,53.32 41.00,48.85 41.00,45.58
        C 41.00,45.58 41.00,33.89 41.00,33.89
        C 32.85,39.47 29.80,33.71 30.84,29.99 Z" />
   </g>
   </g>
</svg>
